<svg width="2500" height="2500" viewBox="0 0 2145 2145" fill="none" xmlns="http://www.w3.org/2000/svg">
<circle cx="1071.78" cy="1071.78" r="108.69" fill="white"/>
<mask id="path-2-inside-1_4_2" fill="white">
<path fill-rule="evenodd" clip-rule="evenodd" d="M1478.11 1775.56L1884.43 1071.78L1478.11 368.002L665.454 368.002L259.127 1071.78L665.454 1775.56H1478.11ZM1071.8 1447.46C1278.88 1447.46 1446.76 1279.58 1446.76 1072.5C1446.76 865.417 1278.88 697.544 1071.8 697.544C864.719 697.544 696.846 865.417 696.846 1072.5C696.846 1279.58 864.719 1447.46 1071.8 1447.46Z"/>
</mask>
<path fill-rule="evenodd" clip-rule="evenodd" d="M1478.11 1775.56L1884.43 1071.78L1478.11 368.002L665.454 368.002L259.127 1071.78L665.454 1775.56H1478.11ZM1071.8 1447.46C1278.88 1447.46 1446.76 1279.58 1446.76 1072.5C1446.76 865.417 1278.88 697.544 1071.8 697.544C864.719 697.544 696.846 865.417 696.846 1072.5C696.846 1279.58 864.719 1447.46 1071.8 1447.46Z" fill="white"/>
<path d="M1884.43 1071.78L1894.82 1077.78L1898.29 1071.78L1894.82 1065.78L1884.43 1071.78ZM1478.11 1775.56V1787.56H1485.03L1488.5 1781.56L1478.11 1775.56ZM1478.11 368.002L1488.5 362.002L1485.03 356.002L1478.11 356.002L1478.11 368.002ZM665.454 368.002L665.454 356.002L658.525 356.002L655.061 362.002L665.454 368.002ZM259.127 1071.78L248.735 1065.78L245.271 1071.78L248.735 1077.78L259.127 1071.78ZM665.454 1775.56L655.061 1781.56L658.525 1787.56H665.454V1775.56ZM1874.04 1065.78L1467.71 1769.56L1488.5 1781.56L1894.82 1077.78L1874.04 1065.78ZM1467.71 374.002L1874.04 1077.78L1894.82 1065.78L1488.5 362.002L1467.71 374.002ZM665.454 380.002L1478.11 380.002L1478.11 356.002L665.454 356.002L665.454 380.002ZM269.52 1077.78L675.846 374.002L655.061 362.002L248.735 1065.78L269.52 1077.78ZM675.846 1769.56L269.52 1065.78L248.735 1077.78L655.061 1781.56L675.846 1769.56ZM1478.11 1763.56H665.454V1787.56H1478.11V1763.56ZM1434.76 1072.5C1434.76 1272.96 1272.26 1435.46 1071.8 1435.46V1459.46C1285.51 1459.46 1458.76 1286.21 1458.76 1072.5H1434.76ZM1071.8 709.544C1272.26 709.544 1434.76 872.045 1434.76 1072.5H1458.76C1458.76 858.79 1285.51 685.544 1071.8 685.544V709.544ZM708.846 1072.5C708.846 872.045 871.347 709.544 1071.8 709.544V685.544C858.092 685.544 684.846 858.79 684.846 1072.5H708.846ZM1071.8 1435.46C871.347 1435.46 708.846 1272.96 708.846 1072.5H684.846C684.846 1286.21 858.092 1459.46 1071.8 1459.46V1435.46Z" fill="black" mask="url(#path-2-inside-1_4_2)"/>
</svg>
